<mxfile host="app.diagrams.net" agent="Mozilla/5.0 (Windows NT 10.0; Win64; x64) AppleWebKit/537.36 (KHTML, like Gecko) Chrome/135.0.0.0 Safari/537.36" version="26.2.14">
  <diagram name="Sayfa -1" id="bIFxgCBYKtcArjqLkoiY">
    <mxGraphModel dx="974" dy="420" grid="1" gridSize="10" guides="1" tooltips="1" connect="1" arrows="1" fold="1" page="1" pageScale="1" pageWidth="827" pageHeight="1169" math="0" shadow="0">
      <root>
        <mxCell id="0" />
        <mxCell id="1" parent="0" />
        <mxCell id="VMAANpr6k2YyElUS-mPG-8" style="edgeStyle=orthogonalEdgeStyle;rounded=0;orthogonalLoop=1;jettySize=auto;html=1;exitX=0.5;exitY=0;exitDx=0;exitDy=0;exitPerimeter=0;entryX=0.5;entryY=0;entryDx=0;entryDy=0;" edge="1" parent="1" source="VMAANpr6k2YyElUS-mPG-1" target="VMAANpr6k2YyElUS-mPG-2">
          <mxGeometry relative="1" as="geometry" />
        </mxCell>
        <mxCell id="VMAANpr6k2YyElUS-mPG-9" style="edgeStyle=orthogonalEdgeStyle;rounded=0;orthogonalLoop=1;jettySize=auto;html=1;exitX=0.75;exitY=0.1;exitDx=0;exitDy=0;exitPerimeter=0;entryX=0.5;entryY=0;entryDx=0;entryDy=0;" edge="1" parent="1" source="VMAANpr6k2YyElUS-mPG-1" target="VMAANpr6k2YyElUS-mPG-3">
          <mxGeometry relative="1" as="geometry" />
        </mxCell>
        <mxCell id="VMAANpr6k2YyElUS-mPG-10" style="edgeStyle=orthogonalEdgeStyle;rounded=0;orthogonalLoop=1;jettySize=auto;html=1;exitX=1;exitY=0.3333333333333333;exitDx=0;exitDy=0;exitPerimeter=0;entryX=0;entryY=0;entryDx=0;entryDy=0;" edge="1" parent="1" source="VMAANpr6k2YyElUS-mPG-1" target="VMAANpr6k2YyElUS-mPG-4">
          <mxGeometry relative="1" as="geometry" />
        </mxCell>
        <mxCell id="VMAANpr6k2YyElUS-mPG-11" style="edgeStyle=orthogonalEdgeStyle;rounded=0;orthogonalLoop=1;jettySize=auto;html=1;exitX=0.25;exitY=0.1;exitDx=0;exitDy=0;exitPerimeter=0;entryX=1;entryY=0.5;entryDx=0;entryDy=0;" edge="1" parent="1" source="VMAANpr6k2YyElUS-mPG-1" target="VMAANpr6k2YyElUS-mPG-7">
          <mxGeometry relative="1" as="geometry" />
        </mxCell>
        <mxCell id="VMAANpr6k2YyElUS-mPG-13" style="edgeStyle=orthogonalEdgeStyle;rounded=0;orthogonalLoop=1;jettySize=auto;html=1;exitX=1;exitY=1;exitDx=0;exitDy=0;exitPerimeter=0;entryX=1;entryY=0.5;entryDx=0;entryDy=0;" edge="1" parent="1" source="VMAANpr6k2YyElUS-mPG-1" target="VMAANpr6k2YyElUS-mPG-5">
          <mxGeometry relative="1" as="geometry" />
        </mxCell>
        <mxCell id="VMAANpr6k2YyElUS-mPG-1" value="Esnaf(İşletme)" style="shape=umlActor;verticalLabelPosition=bottom;verticalAlign=top;html=1;outlineConnect=0;fillColor=#FFFF00;" vertex="1" parent="1">
          <mxGeometry x="260" y="90" width="30" height="60" as="geometry" />
        </mxCell>
        <mxCell id="VMAANpr6k2YyElUS-mPG-2" value="Ürün ekleme/silme/günceleme" style="ellipse;whiteSpace=wrap;html=1;" vertex="1" parent="1">
          <mxGeometry x="470" y="40" width="140" height="80" as="geometry" />
        </mxCell>
        <mxCell id="VMAANpr6k2YyElUS-mPG-3" value="Dükkan Açık/Kapalı&amp;nbsp;" style="ellipse;whiteSpace=wrap;html=1;" vertex="1" parent="1">
          <mxGeometry x="420" y="160" width="120" height="70" as="geometry" />
        </mxCell>
        <mxCell id="VMAANpr6k2YyElUS-mPG-4" value="Sipariş kabul etme&amp;nbsp;" style="ellipse;whiteSpace=wrap;html=1;" vertex="1" parent="1">
          <mxGeometry x="380" y="230" width="120" height="80" as="geometry" />
        </mxCell>
        <mxCell id="VMAANpr6k2YyElUS-mPG-5" value="Çalışma Saatlerini Ayarlama" style="ellipse;whiteSpace=wrap;html=1;" vertex="1" parent="1">
          <mxGeometry x="200" y="270" width="120" height="80" as="geometry" />
        </mxCell>
        <mxCell id="VMAANpr6k2YyElUS-mPG-6" value="Yorumlara Yanıt Verme" style="ellipse;whiteSpace=wrap;html=1;" vertex="1" parent="1">
          <mxGeometry x="60" y="200" width="120" height="80" as="geometry" />
        </mxCell>
        <mxCell id="VMAANpr6k2YyElUS-mPG-7" value="İşletme Bilgilerini Güncelleme" style="ellipse;whiteSpace=wrap;html=1;" vertex="1" parent="1">
          <mxGeometry x="10" y="50" width="120" height="80" as="geometry" />
        </mxCell>
        <mxCell id="VMAANpr6k2YyElUS-mPG-12" style="edgeStyle=orthogonalEdgeStyle;rounded=0;orthogonalLoop=1;jettySize=auto;html=1;exitX=0;exitY=1;exitDx=0;exitDy=0;exitPerimeter=0;entryX=0.419;entryY=0.053;entryDx=0;entryDy=0;entryPerimeter=0;" edge="1" parent="1" source="VMAANpr6k2YyElUS-mPG-1" target="VMAANpr6k2YyElUS-mPG-6">
          <mxGeometry relative="1" as="geometry" />
        </mxCell>
      </root>
    </mxGraphModel>
  </diagram>
</mxfile>
